<?xml version="1.0" encoding="utf-8"?>
<!-- Generator: Adobe Illustrator 25.0.1, SVG Export Plug-In . SVG Version: 6.00 Build 0)  -->
<svg version="1.1" id="Calque_1" xmlns="http://www.w3.org/2000/svg" xmlns:xlink="http://www.w3.org/1999/xlink" x="0px" y="0px"
	 viewBox="0 0 595.3 243" style="enable-background:new 0 0 595.3 243;" xml:space="preserve">
<style type="text/css">
	.st0{fill:#FFFFFF;}
</style>
<g id="Calque_1_1_">
</g>
<g id="Calque_2_1_">
	<g>
		<g>
			<path class="st0" d="M555,100.4c-3,0-6.1-1.1-7.8-2c-35.5-18.5-75.8-29.4-114.9-29.4c-4.9,0-8.5,0.2-13.1,0.7
				c7.4,11.7,20.1,28.8,28.8,39.2c2.3,2.7,2.9,4.4,2.9,7c0,4.6-4.8,9-9.9,9c-3.4,0-5.4-1.4-8.6-5.1c-10.6-12.4-26.5-34.5-34.1-47
				c-37.1,6.6-78.5,28.5-103,47.8c-2.8,2.2-4.7,3.2-7.5,3.2c-5.2,0-9.7-4.5-9.7-9.6c0-2.9,1.1-5.2,4.9-8.4
				c37.3-31.1,95.3-55.6,144.5-55.6c19.5,0,38.3,2.7,56.5,7.2c11,2.7,27.4,8.2,41.4,14.3C489,49.5,443.1,29.3,414.1,29.3
				c-7.4,0-11.9,2.5-11.9,7.5c0,2.9,1.6,6.9,4.1,10.8c-5.8,0.6-13.4,1.8-19.2,3.3c-3-5.5-5.1-11.5-5.1-17.8
				c0-14.2,9.2-22.8,27.8-22.8c42,0,112.7,39.2,148,67.8c4,3.3,8,7.4,8,12.1C565.6,94.9,561.5,100.4,555,100.4"/>
			<path class="st0" d="M98.1,183.8c0-2.5,1.5-4.1,3.9-4.1c2.3,0,3.8,1.6,3.8,4.1v4.2c2-4.2,6.6-8.3,10.7-8.3c2.6,0,3.9,1.6,3.9,3.6
				c0,2-1.1,3.5-4.5,4.4c-7,1.9-10.1,5.9-10.1,13.4v21.8c0,2.5-1.5,4.1-3.8,4.1c-2.3,0-3.9-1.6-3.9-4.1L98.1,183.8L98.1,183.8z"/>
			<path class="st0" d="M270.5,183.8c0-2.5,1.5-4.1,3.9-4.1s3.8,1.6,3.8,4.1v4.2c2-4.2,6.6-8.3,10.7-8.3c2.6,0,3.9,1.6,3.9,3.6
				c0,2-1.1,3.5-4.5,4.4c-7,1.9-10.1,5.9-10.1,13.4v21.8c0,2.5-1.5,4.1-3.8,4.1s-3.9-1.6-3.9-4.1L270.5,183.8L270.5,183.8z"/>
			<path class="st0" d="M142.2,179.7c7.5,0,12.4,3,12.4,5.7c0,1.6-1.2,3.2-3,3.2c-2.8,0-4.1-2.3-9.3-2.3c-8.7,0-13.2,7.8-13.2,16.9
				c0,9.9,5,16.9,13.2,16.9c5.7,0,6.9-2.4,9.6-2.4c1.7,0,2.8,1.2,2.8,3c0,1.7-1.4,3.2-4,4.4c-2.3,1-5.2,1.7-8.4,1.7
				c-13.1,0-20.9-9.8-20.9-23.6C121.3,189.8,129.2,179.7,142.2,179.7"/>
			<path class="st0" d="M191.1,200.5c0-6.6-3.8-14.1-12.2-14.1c-8.3,0-12.7,6.5-13,14.1H191.1z M165.9,206.2c0.1,7.6,5,14,13.6,14
				c9,0,11.2-5.1,14.4-5.1c1.8,0,3.1,1.2,3.1,3.2c0,3.7-8.2,8.6-17.5,8.6c-6.9,0-11.6-2.2-15-5.7c-4.4-4.5-6.4-11-6.4-17.9
				c0-12.6,7.8-23.6,20.8-23.6c12,0,19.9,10.6,19.9,22.5c0,2.7-1.1,4.1-4.3,4.1L165.9,206.2L165.9,206.2z"/>
			<path class="st0" d="M214.5,222.9c0,2.5-1.5,4.1-3.8,4.1c-2.4,0-3.9-1.6-3.9-4.1v-54.8c0-2.5,1.5-4.1,3.9-4.1
				c2.3,0,3.8,1.6,3.8,4.1V222.9z"/>
			<path class="st0" d="M242.5,220.2c7.5,0,12.6-6.5,12.6-16.9s-5.1-16.9-12.6-16.9c-7.5,0-12.6,6.5-12.6,16.9
				C229.9,213.7,235,220.2,242.5,220.2 M242.5,227c-12.2,0-20.4-9.8-20.4-23.6s8.1-23.7,20.4-23.7c12.2,0,20.4,9.8,20.4,23.7
				C262.9,217.2,254.8,227,242.5,227"/>
			<path class="st0" d="M346.2,182.9c-4.3,14.7-11.3,39-11.9,41c-0.6,2.2-2,3.1-4.1,3.1c-2.1,0-3.4-0.8-4.1-3.1
				c-0.6-2.1-8-27.5-12.2-42.1c-0.7-2.4-1.3-5.2-1.8-7.7c-0.3,2.4-0.7,5.1-1.1,7.7c-2.2,13.8-5.6,35.3-6.5,41.3
				c-0.4,2.7-1.8,3.8-4,3.8c-2.1,0-3.4-1.4-3.4-3.6c0-0.9,0.2-2,0.4-3.5c0,0,7.7-46.4,8.3-50c0.6-3.8,2.6-5.8,5.8-5.8
				c2.8,0,5.1,1.7,6,4.8c0.6,2,6.8,23.8,10.7,37.6c0.7,2.5,1.5,5.5,2,8.2c0.5-2.6,1.2-5.5,1.9-8c4-13.8,10.3-35.8,10.9-37.8
				c0.9-3.2,2.9-4.8,5.8-4.8c3,0,5.2,2,5.8,5.8c0.6,3.6,8.3,50,8.3,50c0.2,1.5,0.4,2.6,0.4,3.5c0,2.2-1.3,3.6-3.4,3.6
				c-2.2,0-3.6-1.1-4-3.8c-0.9-5.9-4.2-26.3-6.4-40.1c-0.5-2.8-0.9-6-1.2-8.9C347.9,176.6,347.1,179.7,346.2,182.9"/>
			<path class="st0" d="M380.8,183.8c0-2.5-1.5-4.1-3.9-4.1c-2.4,0-3.8,1.6-3.8,4.1v39.1c0,2.5,1.5,4.1,3.8,4.1
				c2.4,0,3.9-1.6,3.9-4.1V183.8z M377,166.1c2.6,0,4.7,2.1,4.7,4.7s-2.1,4.7-4.7,4.7c-2.6,0-4.7-2.1-4.7-4.7S374.4,166.1,377,166.1
				"/>
			<path class="st0" d="M394.2,170.2c0-2.5,1.5-4.1,3.8-4.1s3.9,1.6,3.9,4.1v10h3.1c2.5,0,3.8,1.2,3.8,3.3c0,2.1-1.3,3.3-3.8,3.3
				h-3.1v36c0,2.5-1.5,4.1-3.9,4.1c-2.3,0-3.8-1.6-3.8-4.1v-36h-2.8c-2.5,0-3.8-1.2-3.8-3.3c0-2.1,1.3-3.3,3.8-3.3h2.8V170.2z"/>
			<path class="st0" d="M418.5,170.2c0-2.5,1.5-4.1,3.9-4.1c2.3,0,3.8,1.6,3.8,4.1v10h3.1c2.5,0,3.8,1.2,3.8,3.3
				c0,2.1-1.3,3.3-3.8,3.3h-3.1v36c0,2.5-1.5,4.1-3.8,4.1s-3.9-1.6-3.9-4.1v-36h-2.8c-2.5,0-3.8-1.2-3.8-3.3c0-2.1,1.3-3.3,3.8-3.3
				h2.8V170.2z"/>
			<path class="st0" d="M54.2,202.6c3.2-8.9,6.7-18.7,9-25.2c0.7-1.8,1.2-3.6,1.7-5c0.5,1.6,1.1,3.3,1.7,5c2.3,6.6,5.8,16.3,9,25.3
				H54.2z M89.8,219.9c-1.6-4.3-16.6-44.7-19-50.9c-1.2-3.1-3-5-5.9-5c-3,0-4.7,1.8-5.8,5c-1.1,2.8-17.4,46.6-19,50.9
				c-0.7,1.9-1,2.9-1,3.7c0,1.9,1.7,3.3,3.7,3.3c2.1,0,3.2-1.1,3.9-2.9c0.4-1.1,2.5-7,5.2-14.6H78c2.6,7.2,4.6,12.9,5.2,14.6
				c0.6,1.6,1.7,2.9,3.7,2.9c2,0,3.9-1.2,3.9-3.2C90.9,222.8,90.7,222.1,89.8,219.9"/>
			<path class="st0" d="M495.9,222.9c0,2.5-1.5,4.1-3.9,4.1c-2.4,0-3.9-1.6-3.9-4.1v-54.8c0-2.5,1.5-4.1,3.9-4.1
				c2.3,0,3.9,1.6,3.9,4.1V222.9z"/>
			<path class="st0" d="M457.1,220.3c-7.5,0-12.6-6.5-12.6-16.9c0-10.4,5.1-16.9,12.6-16.9c7.5,0,12.6,6.6,12.6,16.9
				C469.8,213.7,464.6,220.3,457.1,220.3 M473.5,179.7c-2.3,0-3.8,1.6-3.8,4.1v3.4c-2.8-4.7-7.5-7.6-13.2-7.6
				c-11.7,0-19.8,9.8-19.8,23.6c0,13.9,8.1,23.7,19.8,23.7c5.7,0,10.3-2.9,13.2-7.5v3.5c0,2.5,1.5,4.1,3.8,4.1s3.9-1.6,3.9-4.1
				v-39.1C477.4,181.2,475.9,179.7,473.5,179.7"/>
		</g>
	</g>
</g>
</svg>
