<?xml version="1.0" encoding="utf-8"?>
<!-- Generator: Adobe Illustrator 23.0.4, SVG Export Plug-In . SVG Version: 6.00 Build 0)  -->
<svg version="1.1" xmlns="http://www.w3.org/2000/svg" xmlns:xlink="http://www.w3.org/1999/xlink" x="0px" y="0px"
	 viewBox="0 0 595.28 383.87" style="enable-background:new 0 0 595.28 383.87;" xml:space="preserve">
<style type="text/css">
	.st0{fill:#E84E0F;}
	.st1{fill:#6B6B6A;}
</style>
<g id="Calque_1">
</g>
<g id="Calque_2">
	<g>
		<g>
			<path class="st0" d="M555.04,147.37c-3-0.01-6.07-1.09-7.82-2c-35.51-18.49-75.78-29.42-114.88-29.42
				c-4.91,0-8.54,0.2-13.09,0.66c7.37,11.73,20.08,28.79,28.79,39.24c2.26,2.71,2.93,4.35,2.93,6.96c0,4.56-4.8,8.98-9.91,8.98
				c-3.4,0-5.43-1.35-8.6-5.05c-10.59-12.44-26.51-34.49-34.06-47c-37.12,6.57-78.49,28.48-102.95,47.84
				c-2.79,2.24-4.74,3.17-7.55,3.17c-5.19,0-9.71-4.48-9.71-9.58c0-2.95,1.1-5.18,4.92-8.36c37.31-31.06,95.27-55.6,144.5-55.6
				c19.51,0,38.33,2.71,56.55,7.16c11.05,2.7,27.44,8.2,41.39,14.29c-36.59-22.12-82.47-42.33-111.47-42.33
				c-7.41,0-11.93,2.48-11.93,7.47c0,2.93,1.64,6.86,4.08,10.8c-5.81,0.59-13.44,1.77-19.24,3.32c-3.03-5.54-5.13-11.46-5.13-17.81
				c0-14.15,9.21-22.85,27.78-22.85c42.04,0,112.72,39.19,147.97,67.82c4.04,3.28,8.01,7.35,8.01,12.11
				C565.63,141.9,561.54,147.36,555.04,147.37"/>
			<path class="st1" d="M98.09,230.75c0-2.52,1.53-4.09,3.87-4.09c2.35,0,3.81,1.57,3.81,4.09V235c2.04-4.19,6.59-8.34,10.67-8.34
				c2.62,0,3.9,1.55,3.9,3.6c0,2-1.11,3.49-4.49,4.43c-7,1.95-10.08,5.87-10.08,13.4v21.77c0,2.52-1.47,4.08-3.82,4.08
				c-2.34,0-3.87-1.56-3.87-4.08V230.75z"/>
			<path class="st1" d="M270.55,230.75c0-2.52,1.53-4.09,3.87-4.09c2.34,0,3.81,1.57,3.81,4.09V235c2.04-4.19,6.59-8.34,10.67-8.34
				c2.62,0,3.89,1.55,3.89,3.6c0,2-1.09,3.49-4.48,4.43c-7.01,1.95-10.08,5.87-10.08,13.4v21.77c0,2.52-1.48,4.08-3.82,4.08
				c-2.34,0-3.87-1.56-3.87-4.08V230.75z"/>
			<path class="st1" d="M142.25,226.66c7.51,0,12.35,3.02,12.35,5.73c0,1.63-1.21,3.25-3.04,3.25c-2.81,0-4.14-2.28-9.31-2.28
				c-8.73,0-13.21,7.81-13.21,16.94c0,9.89,5.04,16.94,13.21,16.94c5.7,0,6.95-2.35,9.62-2.35c1.72,0,2.78,1.18,2.78,2.98
				c0,1.73-1.42,3.16-4.03,4.35c-2.26,1.05-5.25,1.73-8.38,1.73c-13.08,0-20.93-9.82-20.93-23.64
				C121.32,236.78,129.24,226.66,142.25,226.66"/>
			<path class="st1" d="M191.06,247.52c0-6.6-3.75-14.15-12.18-14.15c-8.3,0-12.74,6.51-13.01,14.15H191.06z M165.87,253.25
				c0.14,7.56,5.03,13.99,13.64,13.99c9.04,0,11.19-5.07,14.45-5.07c1.84,0,3.12,1.24,3.12,3.19c0,3.74-8.25,8.58-17.49,8.58
				c-6.92,0-11.55-2.19-15.01-5.7c-4.4-4.46-6.45-11.04-6.45-17.95c0-12.63,7.83-23.64,20.78-23.64c12.03,0,19.85,10.63,19.85,22.51
				c0,2.69-1.09,4.08-4.26,4.08H165.87z"/>
			<path class="st1" d="M214.52,269.86c0,2.52-1.49,4.08-3.84,4.08c-2.35,0-3.86-1.57-3.86-4.08V215.1c0-2.52,1.51-4.09,3.86-4.09
				c2.34,0,3.84,1.57,3.84,4.09V269.86z"/>
			<path class="st1" d="M242.51,267.24c7.51,0,12.65-6.54,12.65-16.94c0-10.4-5.14-16.94-12.65-16.94
				c-7.49,0-12.64,6.54-12.64,16.94C229.88,260.7,235.02,267.24,242.51,267.24 M242.51,273.96c-12.23,0-20.36-9.75-20.36-23.65
				c0-13.9,8.14-23.66,20.36-23.66c12.24,0,20.37,9.75,20.37,23.66C262.89,264.21,254.75,273.96,242.51,273.96"/>
			<path class="st1" d="M346.19,229.86c-4.29,14.73-11.34,38.96-11.92,40.96c-0.64,2.2-1.98,3.13-4.08,3.13
				c-2.11,0-3.4-0.77-4.1-3.13c-0.59-2.07-7.98-27.46-12.24-42.05c-0.68-2.41-1.34-5.25-1.84-7.66c-0.28,2.36-0.66,5.11-1.07,7.69
				c-2.2,13.78-5.6,35.27-6.55,41.34c-0.42,2.68-1.78,3.82-4.02,3.82c-2.09,0-3.43-1.41-3.43-3.65c0-0.87,0.17-2,0.43-3.48
				c0,0,7.7-46.43,8.33-49.97c0.65-3.79,2.61-5.83,5.82-5.83c2.84,0,5.1,1.68,6.02,4.83c0.56,1.96,6.78,23.77,10.73,37.56
				c0.73,2.54,1.45,5.54,2.01,8.24c0.54-2.65,1.21-5.52,1.93-8c3.95-13.77,10.29-35.83,10.86-37.8c0.9-3.16,2.91-4.83,5.75-4.83
				c3,0,5.22,1.96,5.82,5.83c0.57,3.55,8.34,49.97,8.34,49.97c0.25,1.48,0.42,2.61,0.42,3.48c0,2.23-1.33,3.65-3.43,3.65
				c-2.23,0-3.59-1.14-4.02-3.82c-0.92-5.88-4.16-26.34-6.36-40.14c-0.46-2.81-0.85-6.01-1.21-8.94
				C347.87,223.59,347.1,226.74,346.19,229.86"/>
			<path class="st1" d="M380.82,230.75c0-2.52-1.5-4.09-3.86-4.09c-2.35,0-3.84,1.57-3.84,4.09v39.11c0,2.52,1.48,4.08,3.84,4.08
				c2.35,0,3.86-1.56,3.86-4.08V230.75z M376.96,213.11c2.61,0,4.7,2.08,4.7,4.69c0,2.61-2.09,4.7-4.7,4.7
				c-2.6,0-4.69-2.09-4.69-4.7C372.27,215.19,374.36,213.11,376.96,213.11"/>
			<path class="st1" d="M394.2,217.19c0-2.51,1.49-4.08,3.84-4.08c2.35,0,3.86,1.57,3.86,4.08v10h3.13c2.52,0,3.82,1.23,3.82,3.32
				c0,2.09-1.3,3.33-3.82,3.33h-3.13v36.02c0,2.52-1.51,4.08-3.86,4.08c-2.34,0-3.84-1.56-3.84-4.08v-36.02h-2.78
				c-2.52,0-3.84-1.25-3.84-3.33c0-2.09,1.31-3.32,3.84-3.32h2.78V217.19z"/>
			<path class="st1" d="M418.45,217.19c0-2.51,1.51-4.08,3.86-4.08c2.34,0,3.84,1.57,3.84,4.08v10h3.13c2.52,0,3.83,1.23,3.83,3.32
				c0,2.09-1.3,3.33-3.83,3.33h-3.13v36.02c0,2.52-1.49,4.08-3.84,4.08c-2.35,0-3.86-1.56-3.86-4.08v-36.02h-2.81
				c-2.52,0-3.82-1.25-3.82-3.33c0-2.09,1.3-3.32,3.82-3.32h2.81V217.19z"/>
			<path class="st1" d="M54.22,249.63c3.2-8.94,6.69-18.72,9.02-25.25c0.65-1.82,1.23-3.55,1.68-4.99c0.48,1.55,1.07,3.33,1.65,4.97
				c2.34,6.55,5.82,16.32,9.01,25.27H54.22z M89.82,266.9c-1.61-4.31-16.64-44.7-18.97-50.93c-1.19-3.13-2.98-4.96-5.94-4.96
				c-3.05,0-4.67,1.83-5.84,4.96c-1.06,2.8-17.43,46.63-19.05,50.93c-0.73,1.9-1,2.91-1,3.73c0,1.93,1.65,3.32,3.65,3.32
				c2.07,0,3.25-1.07,3.89-2.87c0.39-1.08,2.53-7.05,5.24-14.65h26.21c2.56,7.18,4.64,12.94,5.24,14.65
				c0.58,1.62,1.65,2.87,3.73,2.87c2,0,3.88-1.22,3.88-3.22C90.86,269.84,90.66,269.14,89.82,266.9"/>
			<path class="st1" d="M495.94,269.86c0,2.52-1.52,4.08-3.86,4.08c-2.35,0-3.85-1.57-3.85-4.08V215.1c0-2.52,1.49-4.09,3.85-4.09
				c2.34,0,3.86,1.57,3.86,4.09V269.86z"/>
			<path class="st1" d="M457.1,267.26c-7.5,0-12.64-6.55-12.64-16.95c0-10.4,5.14-16.95,12.64-16.95c7.51,0,12.65,6.55,12.65,16.95
				C469.75,260.7,464.61,267.26,457.1,267.26 M473.51,226.66c-2.34,0-3.84,1.57-3.84,4.09v3.45c-2.84-4.68-7.46-7.56-13.17-7.56
				c-11.71,0-19.77,9.75-19.77,23.65c0,13.9,8.06,23.65,19.77,23.65c5.71,0,10.33-2.88,13.17-7.55v3.46c0,2.52,1.5,4.08,3.84,4.08
				s3.86-1.57,3.86-4.08v-39.11C477.37,228.23,475.85,226.66,473.51,226.66"/>
		</g>
	</g>
</g>
</svg>
